<svg width="88" height="91" viewBox="0 0 88 91" fill="none" xmlns="http://www.w3.org/2000/svg">
<g filter="url(#filter0_d_101_96)">
<path d="M44 11C39.6664 11 35.3752 11.8536 31.3714 13.512C27.3677 15.1704 23.7298 17.6011 20.6655 20.6655C17.6011 23.7298 15.1704 27.3677 13.512 31.3714C11.8536 35.3752 11 39.6664 11 44C11 48.3336 11.8536 52.6248 13.512 56.6286C15.1704 60.6323 17.6011 64.2702 20.6655 67.3345C23.7298 70.3989 27.3677 72.8296 31.3714 74.488C35.3752 76.1464 39.6664 77 44 77C52.7521 77 61.1458 73.5232 67.3345 67.3345C73.5232 61.1458 77 52.7521 77 44C77 35.2479 73.5232 26.8542 67.3345 20.6655C61.1458 14.4768 52.7521 11 44 11ZM44 5.5C54.2108 5.5 64.0035 9.55624 71.2236 16.7764C78.4438 23.9965 82.5 33.7892 82.5 44C82.5 54.2108 78.4438 64.0035 71.2236 71.2236C64.0035 78.4438 54.2108 82.5 44 82.5C33.7892 82.5 23.9965 78.4438 16.7764 71.2236C9.55624 64.0035 5.5 54.2108 5.5 44C5.5 33.7892 9.55624 23.9965 16.7764 16.7764C23.9965 9.55624 33.7892 5.5 44 5.5Z" fill="#F8F8F8"/>
<path d="M55.0001 24.75C58.6668 24.75 60.5001 26.5833 60.5001 30.25C60.5001 33.9167 58.6668 35.75 55.0001 35.75C51.3334 35.75 49.5001 33.9167 49.5001 30.25C49.5001 26.5833 51.3334 24.75 55.0001 24.75ZM18.447 67.9469L14.553 64.0529L30.5086 48.103C31.8896 46.7213 33.7161 45.8746 35.663 45.7134C37.6098 45.5523 39.5507 46.0872 41.1401 47.223L53.0201 55.704C53.5278 56.0658 54.1435 56.2445 54.7661 56.2105C55.3887 56.1765 55.9813 55.932 56.4466 55.5169L77.9186 36.3L81.5816 40.403L60.1151 59.6144C58.7185 60.8643 56.9379 61.6015 55.0665 61.7044C53.1951 61.8074 51.3444 61.2701 49.8191 60.1809L37.9391 51.6945C37.4095 51.3183 36.7638 51.1418 36.1165 51.1961C35.4692 51.2505 34.862 51.5322 34.4026 51.9915L18.447 67.9414V67.9469Z" fill="#F8F8F8"/>
</g>
<defs>
<filter id="filter0_d_101_96" x="-4" y="0" width="96" height="96" filterUnits="userSpaceOnUse" color-interpolation-filters="sRGB">
<feFlood flood-opacity="0" result="BackgroundImageFix"/>
<feColorMatrix in="SourceAlpha" type="matrix" values="0 0 0 0 0 0 0 0 0 0 0 0 0 0 0 0 0 0 127 0" result="hardAlpha"/>
<feOffset dy="4"/>
<feGaussianBlur stdDeviation="2"/>
<feComposite in2="hardAlpha" operator="out"/>
<feColorMatrix type="matrix" values="0 0 0 0 0 0 0 0 0 0 0 0 0 0 0 0 0 0 0.25 0"/>
<feBlend mode="normal" in2="BackgroundImageFix" result="effect1_dropShadow_101_96"/>
<feBlend mode="normal" in="SourceGraphic" in2="effect1_dropShadow_101_96" result="shape"/>
</filter>
</defs>
</svg>
