<svg width="82" height="78" viewBox="0 0 82 78" fill="none" xmlns="http://www.w3.org/2000/svg">
<path d="M61.5 11.6667L68.3333 21.9167H58.0833L51.25 11.6667H44.4167L51.25 21.9167H41L34.1667 11.6667H27.3333L34.1667 21.9167H23.9166L17.0833 11.6667H13.6666C9.90831 11.6667 6.86748 14.7417 6.86748 18.5001L6.83331 59.5001C6.83331 63.2584 9.90831 66.3334 13.6666 66.3334H68.3333C72.0917 66.3334 75.1667 63.2584 75.1667 59.5001V11.6667H61.5ZM38.4375 50.1042L34.1667 59.5001L29.8958 50.1042L20.5 45.8334L29.8958 41.5626L34.1667 32.1667L38.4375 41.5626L47.8333 45.8334L38.4375 50.1042ZM57.8783 38.7951L54.6667 45.8334L51.455 38.7951L44.4167 35.5834L51.455 32.3717L54.6667 25.3334L57.8783 32.3717L64.9167 35.5834L57.8783 38.7951Z" fill="#F8F8F8"/>
</svg>
