<svg width="53" height="54" viewBox="0 0 53 54" fill="none" xmlns="http://www.w3.org/2000/svg">
<path fill-rule="evenodd" clip-rule="evenodd" d="M26.3662 50.9093C39.4715 50.9093 50.0957 40.1125 50.0957 26.7944C50.0957 13.4762 39.4715 2.67944 26.3662 2.67944C13.2609 2.67944 2.63662 13.4762 2.63662 26.7944C2.63662 40.1125 13.2609 50.9093 26.3662 50.9093ZM26.3662 53.5888C40.9282 53.5888 52.7323 41.5929 52.7323 26.7944C52.7323 11.9958 40.9282 0 26.3662 0C11.8041 0 0 11.9958 0 26.7944C0 41.5929 11.8041 53.5888 26.3662 53.5888Z" fill="#049DBF"/>
<path d="M10.5465 42.3755C10.5465 40.9915 11.5642 39.8219 12.9195 39.6692C23.0902 38.5251 29.6883 38.6283 39.8367 39.6947C40.3435 39.7488 40.8238 39.9516 41.2189 40.2786C41.6141 40.6055 41.9071 41.0423 42.062 41.5356C42.2169 42.0289 42.2271 42.5574 42.0913 43.0565C41.9555 43.5557 41.6796 44.0038 41.2974 44.3462C29.3205 54.9554 22.4759 54.8094 11.3902 44.3569C10.8497 43.8478 10.5465 43.1244 10.5465 42.3768V42.3755Z" fill="#049DBF"/>
<path fill-rule="evenodd" clip-rule="evenodd" d="M39.7009 41.0262C29.6329 39.9678 23.1297 39.8686 13.0631 41.0007C12.7318 41.0399 12.4263 41.202 12.2052 41.4559C11.9841 41.7098 11.8629 42.0376 11.8648 42.3766C11.8648 42.7598 12.0217 43.1228 12.2866 43.3747C17.7813 48.554 21.9446 50.8945 26.0142 50.9093C30.0983 50.924 34.4856 48.6023 40.4312 43.3372C40.6201 43.1663 40.7561 42.9434 40.8226 42.6955C40.8891 42.4476 40.8834 42.1853 40.806 41.9407C40.7287 41.696 40.583 41.4795 40.3868 41.3174C40.1906 41.1553 39.9523 41.0546 39.7009 41.0275V41.0262ZM12.7744 38.3373C23.0519 37.1812 29.7463 37.2857 39.9737 38.3615C40.7361 38.4423 41.4588 38.7473 42.0532 39.2392C42.6476 39.731 43.088 40.3882 43.3206 41.1305C43.5531 41.8728 43.5676 42.6678 43.3623 43.4184C43.157 44.1689 42.7409 44.8423 42.1648 45.3561C36.1335 50.6989 31.1108 53.6088 26.0063 53.5887C20.8873 53.57 16.086 50.6105 10.4951 45.3387C10.0948 44.9598 9.77564 44.5011 9.55766 43.9912C9.33968 43.4813 9.22751 42.9312 9.22816 42.3753C9.22623 41.3764 9.587 40.4119 10.2414 39.6666C10.8957 38.9213 11.7977 38.4475 12.7744 38.336V38.3373Z" fill="#049DBF"/>
<path d="M36.9125 21.4355C36.9125 24.278 35.8014 27.0042 33.8235 29.0141C31.8457 31.0241 29.1631 32.1533 26.366 32.1533C23.5689 32.1533 20.8864 31.0241 18.9086 29.0141C16.9307 27.0042 15.8196 24.278 15.8196 21.4355C15.8196 18.593 16.9307 15.8669 18.9086 13.8569C20.8864 11.847 23.5689 10.7178 26.366 10.7178C29.1631 10.7178 31.8457 11.847 33.8235 13.8569C35.8014 15.8669 36.9125 18.593 36.9125 21.4355Z" fill="#049DBF"/>
<path fill-rule="evenodd" clip-rule="evenodd" d="M26.366 29.4738C28.4639 29.4738 30.4758 28.6269 31.9592 27.1195C33.4425 25.612 34.2759 23.5674 34.2759 21.4355C34.2759 19.3036 33.4425 17.2591 31.9592 15.7516C30.4758 14.2441 28.4639 13.3972 26.366 13.3972C24.2682 13.3972 22.2563 14.2441 20.7729 15.7516C19.2896 17.2591 18.4562 19.3036 18.4562 21.4355C18.4562 23.5674 19.2896 25.612 20.7729 27.1195C22.2563 28.6269 24.2682 29.4738 26.366 29.4738ZM26.366 32.1533C29.1631 32.1533 31.8457 31.0241 33.8235 29.0141C35.8014 27.0042 36.9125 24.278 36.9125 21.4355C36.9125 18.593 35.8014 15.8669 33.8235 13.8569C31.8457 11.847 29.1631 10.7178 26.366 10.7178C23.5689 10.7178 20.8864 11.847 18.9086 13.8569C16.9307 15.8669 15.8196 18.593 15.8196 21.4355C15.8196 24.278 16.9307 27.0042 18.9086 29.0141C20.8864 31.0241 23.5689 32.1533 26.366 32.1533Z" fill="#049DBF"/>
</svg>
