<svg width="51" height="54" viewBox="0 0 51 54" fill="none" xmlns="http://www.w3.org/2000/svg">
<path d="M45.3023 45.0615L32.3681 31.3664C34.3752 28.6189 35.4609 25.2598 35.4609 21.7266C35.4609 17.4973 33.9021 13.5316 31.0831 10.5416C28.2642 7.55156 24.5089 5.90625 20.5195 5.90625C16.5302 5.90625 12.7749 7.55684 9.95596 10.5416C7.13203 13.5264 5.57812 17.4973 5.57812 21.7266C5.57812 25.9506 7.13701 29.9268 9.95596 32.9115C12.7749 35.9016 16.5252 37.5469 20.5195 37.5469C23.8564 37.5469 27.024 36.3973 29.6189 34.2773L42.5531 47.9672C42.5911 48.0074 42.6361 48.0392 42.6856 48.061C42.7352 48.0827 42.7883 48.0939 42.842 48.0939C42.8956 48.0939 42.9488 48.0827 42.9983 48.061C43.0479 48.0392 43.0929 48.0074 43.1309 47.9672L45.3023 45.6732C45.3403 45.6331 45.3704 45.5854 45.3909 45.5329C45.4115 45.4804 45.4221 45.4242 45.4221 45.3674C45.4221 45.3106 45.4115 45.2543 45.3909 45.2018C45.3704 45.1494 45.3403 45.1017 45.3023 45.0615ZM28.4086 30.0797C26.2969 32.3104 23.4979 33.5391 20.5195 33.5391C17.5412 33.5391 14.7422 32.3104 12.6305 30.0797C10.5237 27.8438 9.36328 24.8801 9.36328 21.7266C9.36328 18.573 10.5237 15.6041 12.6305 13.3734C14.7422 11.1428 17.5412 9.91406 20.5195 9.91406C23.4979 9.91406 26.3019 11.1375 28.4086 13.3734C30.5153 15.6094 31.6758 18.573 31.6758 21.7266C31.6758 24.8801 30.5153 27.849 28.4086 30.0797Z" fill="#049DBF"/>
</svg>
